<?xml version="1.0" encoding="utf-8"?>
<!-- Generator: Adobe Illustrator 27.5.0, SVG Export Plug-In . SVG Version: 6.00 Build 0)  -->
<svg version="1.1" id="Capa_1" xmlns="http://www.w3.org/2000/svg" xmlns:xlink="http://www.w3.org/1999/xlink" x="0px" y="0px"
	 viewBox="0 0 2372 1898" style="enable-background:new 0 0 2372 1898;" xml:space="preserve">
<g>
	<path style="fill:#C3B5AA;" d="M1866.856,682.422c-35.16-67.482-90.6-121.145-156.564-158.441
		c-4.764-2.694-3.464-8.471,0.041-10.813c-94.925-54.498-207.638-70.885-316.741-51.633
		c-242.472,42.785-326.994,214.814-326.994,214.814c-1.442-1.415-2.808-2.938-4.134-4.516c2.159,5.628,4.316,11.255,6.474,16.882
		c2.934,7.654-9.354,10.935-12.253,3.378c-7.694-20.065-15.389-40.13-23.084-60.195c-2.06-5.371-3.978-10.874-6.077-16.287
		c-9.215-11.079-20.907-18.023-38.778-15.163c-8.006,8.069-14.05,19.833-18.838,27.674c-10.436,17.085-20.868,34.169-31.302,51.254
		c0.016,2.546-1.798,5.237-4.399,6.368c-2.941,2.289-7.12,1.102-9.145-1.585c-57.189-23.792-122.38-24.809-180.488-3.513
		c-2.864,1.05-5.115,0.007-6.425-1.857c-0.683,0.48-1.502,0.79-2.459,0.94c-3.154,1.106-7.14,0.107-8.379-4.011
		c-6.662-22.145-16.74-42.996-30.053-61.917c-2.793-3.97-5.759-7.837-8.834-11.615c-1.933-1.117-3.962-2.187-6.159-3.176
		c-34.646-15.592-68.998,12.926-96.52,48.906c-7.68,13.614-14.277,27.819-19.536,42.572c-1.735,4.869-7.315,5.289-10.453,2.976
		c-8.743,15.117-15.819,28.913-20.698,38.634c-17.286,34.441-37.389,84.355-49.301,135.647
		c45.677,10.133,90.684,22.801,135.399,37.65c7.061,2.345,4.016,13.54-3.083,11.183c-44.521-14.785-89.334-27.401-134.807-37.513
		c-4.735,22.871-7.663,45.792-7.853,67.562c10.682-0.762,21.368-1.444,32.049-1.985c35.125-1.78,72.019-3.947,106.791,2.659
		c7.336,1.394,4.211,12.569-3.082,11.182c-33.665-6.396-69.711-3.968-103.709-2.245c-10.618,0.538-21.247,1.208-31.873,1.954
		c1.079,27.746,7.077,53.156,20.245,73.447c2.088,3.216,4.28,6.37,6.524,9.494c2.488,3.464,5.072,6.871,7.744,10.223
		c54.872,68.805,147.733,113.975,242.031,138.22c32.653-19.139,65.975-37.383,94.059-63.105
		c31.4-28.761,57.007-63.233,88.781-91.732c6.074-5.448,15.083,3.514,8.984,8.984c-33.797,30.313-60.679,67.563-94.961,97.234
		c-24.141,20.895-51.601,36.946-79.072,52.945c38.446,8.812,76.746,14.207,112.422,16.297c72.387,4.243,143.601,9.475,215.734-2.013
		c12.903-2.055,25.543-4.208,38.002-6.396c25.679-18.008,49.884-38.141,72.186-60.35c5.802-5.779,14.785,3.207,8.984,8.984
		c-16.619,16.549-34.327,31.97-52.873,46.307c65.495-11.844,127.047-23.378,194.783-25.348
		c34.567-30.688,80.505-49.185,124.551-60.79c44.429-11.705,90.212-17.122,135.848-21.803
		c-11.404-18.101-22.695-36.284-33.076-54.996c-39.525-71.244-66.643-159.357-27.883-236.923c3.659-7.323,14.615-0.881,10.969,6.412
		c-22.743,45.515-20.711,99.14-6.166,146.828c15.497,50.81,44.301,96.156,72.45,140.719c2.796,4.426-0.975,9.104-5.485,9.558
		c-24.755,2.496-49.512,5.081-74.13,8.717c-42.118,6.219-84.471,15.223-123.676,32.254c-18.473,8.024-36.154,17.92-52.486,29.719
		c6.908,0.008,13.88,0.11,20.943,0.338c170.183,5.494,371.577,33.128,466.682-117.466c1.328-2.561,2.686-5.104,3.942-7.708
		c25.837-53.544,38.302-113.675,39.071-172.959C1911.572,807.353,1897.4,741.045,1866.856,682.422z"/>
	<path style="fill:#6b5c52;" d="M436.075,1068.325c-12.648,3.541-25.554,6.304-38.573,8.074c-12.501,1.7-25.145,1.319-37.612,2.901
		c-33.509,4.251-63.228,33.102-67.193,66.926c-2.105,17.968,4.817,34.229,19.181,45.135c6.51,4.944,12.847-6.084,6.411-10.971
		c-24.971-18.961-10.553-54.715,8.405-72.075c13.046-11.947,28.324-16.383,45.635-17.047c23.906-0.916,47.736-4.997,70.686-11.715
		c23.336-6.831,45.827-16.415,67.087-28.198c-2.673-3.352-5.257-6.759-7.744-10.223
		C481.345,1052.636,459.188,1061.854,436.075,1068.325z"/>
	<path style="fill:#C3B5AA;" d="M739.382,669.419c0.524-0.403,1.108-0.765,1.815-1.025c3.522-1.29,7.073-2.472,10.639-3.602
		c-8.219-3.236-14.413-7.655-19.525-12.749c2.179,5.4,4.176,10.869,5.948,16.418L739.382,669.419z"/>
	<path style="fill:#C3B5AA;" d="M965.078,611.656c0.541-0.88,1.102-1.775,1.679-2.678c-21.794,15.807-23.887,48.648-43.559,60.853
		c1.713,0.648,3.397,1.369,5.097,2.053C940.546,651.803,952.759,631.696,965.078,611.656z"/>
	<path style="fill:#6b5c52;" d="M566.208,690.487c5.259-14.753,11.856-28.958,19.536-42.572c3.549-6.29,7.256-12.492,11.3-18.493
		c6.68-9.914,14.017-19.353,21.978-28.272c7.327-8.208,15.188-17.445,25.159-22.451c12.193-6.121,22.324,0.216,31.053,8.855
		c4.659,4.611,9.037,9.531,13.189,14.63c3.075,3.779,6.041,7.646,8.834,11.615c13.313,18.921,23.391,39.772,30.053,61.917
		c1.239,4.118,5.225,5.117,8.379,4.011c0.958-0.15,1.776-0.46,2.459-0.94c1.31,1.864,3.562,2.907,6.425,1.857
		c58.108-21.296,123.3-20.279,180.488,3.513c2.026,2.687,6.204,3.873,9.145,1.585c2.601-1.131,4.415-3.822,4.399-6.368
		c10.434-17.085,20.866-34.169,31.302-51.254c4.788-7.841,10.832-19.606,18.838-27.674c4.782-4.82,10.267-8.322,16.603-8.878
		c8.906-0.782,14.247,6.505,17.744,13.667c1.642,3.365,3.068,6.854,4.431,10.373c2.099,5.413,4.016,10.916,6.077,16.287
		c7.694,20.065,15.39,40.13,23.084,60.195c2.898,7.557,15.187,4.276,12.253-3.378c-2.159-5.627-4.316-11.254-6.474-16.882
		c-6.769-17.647-13.538-35.296-20.304-52.944c-6.342-16.538-13.392-39.848-35.051-40.088c-17.924-0.199-31.355,16.107-40.351,30.179
		c-0.577,0.904-1.138,1.799-1.679,2.678c-12.319,20.039-24.532,40.147-36.784,60.228c-1.7-0.684-3.384-1.406-5.097-2.053
		c-54.72-20.7-115.516-22.733-171.361-5.04c-3.565,1.13-7.117,2.312-10.639,3.602c-0.707,0.26-1.291,0.622-1.815,1.025l-1.123-0.959
		c-1.772-5.549-3.769-11.018-5.948-16.418c-4.896-12.134-10.705-23.895-17.661-34.991c-10.457-16.683-23.417-34.595-39.489-46.284
		c-17.318-12.595-35.747-6.786-50.602,6.48c-15.042,13.434-27.967,30.012-39.133,46.737c-13.11,19.635-23.544,40.9-31.467,63.127
		c-1.002,2.811,0,5.028,1.798,6.354C558.893,695.776,564.474,695.356,566.208,690.487z"/>
	<path style="fill:#6b5c52;" d="M1123.085,801.706c-71.775,32.015-139.216,72.95-201.653,120.617
		c-5.447,4.159-0.078,13.536,5.447,9.319c62.437-47.667,129.879-88.603,201.653-120.617
		C1134.864,808.201,1129.38,798.898,1123.085,801.706z"/>
	<path style="fill:#6b5c52;" d="M1122.968,956.494c-32.659-0.591-65.235-4.198-97.861-5.666
		c-31.415-1.413-65.978-3.622-96.444,5.825c-6.613,2.05-3.791,12.472,2.868,10.407c30.138-9.345,64.489-6.802,95.554-5.349
		c31.963,1.495,63.884,4.996,95.883,5.575C1129.914,967.412,1129.916,956.619,1122.968,956.494z"/>
	<path style="fill:#6b5c52;" d="M621.155,905.395c-44.714-14.849-89.722-27.517-135.399-37.65
		c-28.215-6.26-56.682-11.562-85.503-15.786c-7.299-1.07-10.45,10.102-3.082,11.182c29.022,4.253,57.686,9.606,86.094,15.923
		c45.473,10.112,90.286,22.728,134.807,37.513C625.171,918.936,628.216,907.74,621.155,905.395z"/>
	<path style="fill:#6b5c52;" d="M611.171,958.483c7.293,1.386,10.418-9.789,3.082-11.182c-34.772-6.607-71.666-4.439-106.791-2.659
		c-10.682,0.541-21.368,1.223-32.049,1.985c-25.065,1.789-50.102,4.218-74.962,7.704c-7.359,1.032-4.227,12.208,3.083,11.183
		c23.883-3.349,47.961-5.625,72.055-7.32c10.626-0.747,21.255-1.417,31.873-1.954C541.459,954.515,577.506,952.087,611.171,958.483z
		"/>
	<path style="fill:#6b5c52;" d="M652.618,853.466c-7.854-2.336-11.208,9.922-3.378,12.251c17.771,5.285,34.106,16.426,45.192,31.32
		c2.045,2.748,5.498,4.147,8.693,2.279c2.709-1.585,4.339-5.923,2.278-8.692C692.211,872.9,673.847,859.78,652.618,853.466z"/>
	<path style="fill:#6b5c52;" d="M883.295,855.131c-21.154,7.018-39.333,21.557-50.631,40.8c-4.148,7.066,6.829,13.467,10.971,6.412
		c9.604-16.355,25.198-29.042,43.038-34.961c3.255-1.08,5.379-4.384,4.437-7.815C890.233,856.384,886.565,854.046,883.295,855.131z"
		/>
	<path style="fill:#6b5c52;" d="M943.957,1043.723c6.099-5.47-2.91-14.432-8.984-8.984c-31.773,28.499-57.38,62.971-88.781,91.732
		c-28.084,25.722-61.406,43.966-94.059,63.105c-0.547,0.322-1.098,0.64-1.646,0.962c-18.904,11.107-38.229,18.533-59.862,22.409
		c-21.602,3.87-43.652,4.657-65.55,5.073c-17.981,0.341-37-1.444-54.108,5.178c-14.125,5.468-26.293,14.86-35.464,26.882
		c-18.843,24.698-22.81,60.636,4.084,81.057c6.511,4.944,12.848-6.084,6.413-10.971c-22.008-16.71-13.177-48.112,2.407-65.935
		c9.465-10.826,21.907-18.767,36.032-21.817c8.705-1.88,17.868-1.353,26.721-1.474c10.089-0.139,20.179-0.28,30.262-0.648
		c20.624-0.753,41.371-2.404,61.556-6.889c20.234-4.496,38.145-12.647,55.937-23.076c3.665-2.147,7.338-4.285,11.009-6.423
		c27.471-15.999,54.932-32.05,79.072-52.945C883.279,1111.286,910.16,1074.035,943.957,1043.723z"/>
	<path style="fill:#6b5c52;" d="M585.55,1273.911c-6.403,7.603-8.782,17.662-9.347,27.399c-0.535,9.195,0.644,19.636,5.729,27.548
		c1.854,2.883,5.642,4.062,8.693,2.279c2.869-1.679,4.141-5.793,2.278-8.692c-0.443-0.691-0.858-1.396-1.228-2.13l-0.315-0.658
		l-0.286-0.708c-0.65-1.769-1.137-3.598-1.51-5.445c-0.117-0.583-0.21-1.17-0.317-1.755l-0.041-0.236
		c-0.121-0.978-0.212-1.962-0.278-2.946c-0.144-2.204-0.158-4.417-0.053-6.623c0.049-1.056,0.128-2.11,0.234-3.162l0.146-1.276
		l0.128-0.771c0.356-2.001,0.78-3.982,1.36-5.931c0.277-0.93,0.592-1.845,0.927-2.755l0.219-0.552l0.463-0.988
		c0.389-0.787,0.813-1.557,1.278-2.301l0.697-1.056l0.05-0.086l0.157-0.169c2.209-2.622,2.573-6.412,0-8.984
		C592.266,1271.643,587.77,1271.275,585.55,1273.911z"/>
	<path style="fill:#6b5c52;" d="M1208.268,1141.442c-22.302,22.209-46.507,42.342-72.186,60.35
		c-53.519,37.53-113.522,65.704-176.62,83.326c-46.326,12.936-94.174,20.219-142.263,21.391
		c-18.643,0.455-37.629-1.805-56.193,0.057c-12.155,1.22-23.901,4.562-35.788,7.219c-10.487,2.345-21.058,4.276-31.684,5.872
		c-6.461,0.97-14.667,0.684-20.571,3.46c-3.227,1.517-5.744,2.681-9.419,2.802c-19.048,0.627-31.694-17.638-28.003-35.328
		c1.666-7.978-10.58-11.39-12.252-3.378c-3.798,18.2,2.748,36.353,19.289,45.806c6.653,3.801,14.529,6.006,22.219,5.552
		c3.784-0.223,7.447-1.019,10.911-2.557c4.63-2.055,9.161-2.406,14.225-3.104c18.47-2.546,36.535-6.424,54.676-10.634
		c13.082-3.037,25.503-3.684,38.914-3.226c102.099,3.491,204.863-20.36,295.399-67.553c30.049-15.663,58.655-34.047,85.457-54.764
		c18.546-14.337,36.254-29.758,52.873-46.307C1223.053,1144.648,1214.07,1135.663,1208.268,1141.442z"/>
	<path style="fill:#6b5c52;" d="M357.84,1134.135c-6.403,7.603-8.782,17.662-9.349,27.398c-0.534,9.195,0.645,19.637,5.731,27.548
		c1.853,2.883,5.642,4.063,8.691,2.279c2.87-1.679,4.142-5.793,2.28-8.692c-0.444-0.691-0.858-1.396-1.229-2.13l-0.317-0.664
		l-0.285-0.702c-0.648-1.77-1.137-3.598-1.509-5.445c-0.117-0.584-0.21-1.17-0.317-1.755l-0.041-0.234
		c-0.123-0.979-0.212-1.964-0.278-2.949c-0.145-2.204-0.159-4.416-0.055-6.623c0.051-1.056,0.128-2.11,0.234-3.161l0.146-1.274
		l0.128-0.773c0.357-2.002,0.781-3.982,1.362-5.932c0.276-0.93,0.592-1.845,0.924-2.756l0.215-0.542l0.469-0.999
		c0.389-0.786,0.813-1.556,1.277-2.301l0.698-1.056l0.051-0.087l0.156-0.168c2.209-2.622,2.573-6.412,0-8.984
		C364.556,1131.867,360.06,1131.499,357.84,1134.135z"/>
	<path style="fill:#6b5c52;" d="M551.325,1179.103c8.176,0.314,8.163-12.391,0-12.705c-25.453-0.977-49.294,7.325-74.109,11.642
		c-4.922,0.856-9.857,1.631-14.801,2.343c-5.77,0.829-12.449,0.647-17.656,3.284c-5.437,2.754-10.957,3.102-16.867,1.406
		c-15.278-4.384-23.252-18.973-20.061-34.258c1.664-7.978-10.58-11.389-12.252-3.377c-2.946,14.114-0.133,28.427,10.248,38.885
		c8.316,8.377,20.639,13.499,32.502,12.366c6.185-0.591,11.209-3.881,17.228-4.661c9.621-1.248,19.22-2.657,28.765-4.4
		c11.649-2.128,23.103-4.998,34.647-7.602C529.729,1179.598,540.29,1178.68,551.325,1179.103z"/>
	<path style="fill:#6b5c52;" d="M1556.239,1109.106c24.618-3.636,49.376-6.221,74.13-8.717c4.51-0.455,8.281-5.132,5.485-9.558
		c-28.149-44.563-56.953-89.909-72.45-140.719c-14.545-47.688-16.577-101.313,6.166-146.828c3.646-7.293-7.31-13.735-10.969-6.412
		c-38.76,77.566-11.642,165.68,27.883,236.923c10.381,18.712,21.672,36.895,33.076,54.996
		c-45.636,4.681-91.42,10.098-135.848,21.803c-44.046,11.604-89.983,30.102-124.551,60.79c-1.193,1.06-2.483,2.014-3.649,3.103
		c-8.429,7.878-15.851,18.391-15.644,30.41c0.196,11.335,6.289,21.278,17.024,25.224c7.686,2.826,11.001-9.449,3.377-12.251
		c-8.977-3.301-8.912-15.457-5.284-22.592c4.809-9.457,14.371-16.38,22.699-22.543c0.78-0.577,1.605-1.091,2.392-1.659
		c16.332-11.799,34.014-21.694,52.486-29.719C1471.768,1124.329,1514.121,1115.325,1556.239,1109.106z"/>
	<path style="fill:#6b5c52;" d="M1407.497,1231.335l-0.746-0.262l-0.843-0.347c-0.846-0.421-1.665-0.898-2.449-1.425l-0.56-0.399
		l-0.746-0.635c-0.7-0.632-1.363-1.306-1.986-2.014l-0.569-0.693l-0.465-0.648c-0.534-0.79-1.027-1.609-1.478-2.45l-0.645-1.283
		c-0.14-0.296-0.607-1.722-0.123-0.243c-0.3-0.914-0.66-1.803-0.926-2.73c-0.264-0.924-0.483-1.861-0.656-2.807l-0.119-0.91
		l-0.066-0.729c-0.063-0.952-0.078-1.907-0.041-2.86l0.091-1.422l0.004-0.143l0.01-0.047c0.184-0.928,0.36-1.849,0.621-2.759
		l0.354-1.122l0.331-0.857l0.316-0.657l0.691-1.239l0.776-1.197l0.135-0.22l0.195-0.204c2.209-2.623,2.573-6.412,0-8.984
		c-2.268-2.267-6.764-2.637-8.984,0c-14.011,16.648-6.384,44.747,14.5,51.535c3.162,1.027,7.076-1.197,7.814-4.437
		C1412.727,1235.664,1410.882,1232.436,1407.497,1231.335z"/>
	<path style="fill:#6b5c52;" d="M2075.591,980.179c-3.975-30.362-10.863-60.278-22.745-88.573
		c-21.151-50.366-57.772-91.178-104.719-118.927c-12.497-7.386-25.526-13.799-38.862-19.515l-1.276-0.404
		c-4.506-16.185-9.993-32.097-16.516-47.603c-30.296-72.016-82.219-132.357-147.255-175.359
		c-8.966-5.928-18.159-11.497-27.515-16.787c-2.363-1.336-4.634-1.005-6.372,0.157c-3.505,2.343-4.804,8.12-0.041,10.813
		c65.964,37.297,121.404,90.96,156.564,158.441c30.544,58.623,44.716,124.931,43.86,190.86
		c-0.769,59.284-13.234,119.415-39.071,172.959c-1.257,2.604-2.614,5.147-3.942,7.708
		c-33.384,64.449-88.686,115.167-155.068,144.623c-38.17,16.938-79.444,26.958-120.802,32.088
		c-21.084,2.615-42.308,4.027-63.545,4.507c-19.911,0.45-50.512,4.449-65.167-12.342c-5.932-6.795-9.451-18.36-3.134-26.046
		c5.152-6.269-3.786-15.307-8.984-8.984c-13.395,16.298-5.684,39.756,10.984,50.57c19.71,12.787,47.005,10.03,69.39,9.431
		c44.44-1.191,89.079-6.464,131.99-18.347c83.086-23.011,157.465-73.346,203.165-147.364
		c32.172-52.109,49.454-113.12,55.049-173.804c2.374-25.74,2.509-51.73,0.346-77.52c40.019,43.326,55.414,105.122,50.898,163.274
		c-5.191,66.844-39.235,127.996-86.225,174.703c-52.781,52.463-121.082,85.833-191.737,107.052
		c-34.975,10.504-70.678,17.02-106.262,24.939c-32.535,7.24-65.324,17.287-91.687,38.483c-12.434,9.998-24.206,23.14-27.506,39.227
		c-3.167,15.447,2.014,30.857,11.751,42.93c23.138,28.688,63.049,29.637,96.818,28.134c71.905-3.197,142.115-23.154,207.017-53.77
		c64.769-30.554,124.87-71.691,178.192-119.413c26.332-23.566,50.848-49.479,70.496-78.953
		c20.845-31.27,34.744-66.42,41.027-103.472C2081.089,1056.293,2080.532,1017.916,2075.591,980.179z M2066.566,1047.607
		c-1.138,37.517-8.357,75.236-24.489,109.309c-14.995,31.671-36.555,59.633-60.905,84.656
		c-48.922,50.275-107.538,92.794-169.1,126.211c-61.724,33.505-129.318,57.804-199.281,66.154
		c-17.024,2.031-34.185,3.219-51.333,3.299c-18.641,0.087-38.477-1.301-55.016-10.759c-13.459-7.696-25.069-21.941-25.335-38.031
		c-0.285-17.267,13.13-31.216,25.885-41.092c26.349-20.406,59.569-28.978,91.585-35.805c35.06-7.477,70.061-14.36,104.373-24.936
		c67.552-20.822,132.771-52.688,184.764-101.3c46.917-43.867,83.2-101.371,94.501-165.219
		c10.532-59.496,1.128-125.12-33.178-175.753c-8.217-12.127-17.792-23.252-28.642-33.091l-0.659-0.489
		c-1.874-14.311-4.442-28.526-7.771-42.563c45.971,21.286,86.55,52.52,113.082,96.458
		C2057.6,918.565,2068.452,985.432,2066.566,1047.607z"/>
	<path style="fill:#6b5c52;" d="M813.38,981.569c-0.705,0.18-1.412,0.327-2.126,0.47l-0.338,0.055l-0.943,0.085
		c-1.229,0.085-2.467,0.08-3.697-0.012l-0.914-0.086l-0.317-0.051c-0.688-0.136-1.374-0.264-2.056-0.435
		c-1.195-0.299-2.368-0.675-3.516-1.119l-0.282-0.112l-0.914-0.426l-1.422-0.733c-1.257-0.687-2.459-1.459-3.627-2.287
		c-0.861-0.609,0.088,0.109-0.668-0.501c-0.561-0.453-1.107-0.927-1.639-1.414c-1.001-0.915-1.952-1.885-2.849-2.902
		c-2.01-2.277-3.693-4.978-4.972-7.899c0.199-1.709,0.29-3.423,0.157-5.126c-0.09-1.154-0.334-2.244-0.59-3.327l0,0
		c2.713-1.542,5.445-3.768,8.409-6.395c3.381-2.995,11.917-11.042,10.623-17.193c-0.634-3.024-2.997-3.474-5.558-3.88
		c-3.369-0.534-6.749-0.989-10.14-1.363c-1.273-0.141-2.549-0.27-3.826-0.388c-4.478-0.413-10.753-0.384-15.252-0.437
		c-3.823-0.046-7.86-0.738-11.528,0.662c-4.581,1.748-5.138,6.166-3.548,10.92c2.133,6.368,9.981,14.286,15.224,17.592
		c1.261,0.796,2.463,1.367,3.632,1.801c0,0.001,0,0.002,0,0.002c0.109,1.217,0.283,2.425,0.494,3.627
		c0.274,1.553,0.625,3.093,1.147,4.597c-0.383,1.461-0.891,3.036-1.357,3.993c-1.313,2.699-2.599,4.532-4.577,6.433
		c-1.854,1.782-4.502,3.336-7.389,4.356c-3.59,1.268-7.308,1.922-11.104,2.091c-8.042,0.358-15.993-0.985-23.868-2.442
		c-2.747-0.508-5.583,0.758-6.368,3.616c-0.693,2.518,0.851,5.857,3.616,6.369c15.098,2.793,31.448,5.345,45.747-1.894
		c4.747-2.404,8.737-6.36,11.607-11.022c5.142,6.689,12.232,11.945,20.066,14.362c5.646,1.743,11.699,1.857,17.418,0.4
		C822.586,989.909,819.852,979.92,813.38,981.569z"/>
	<path style="fill:#6b5c52;" d="M996.729,656.307c1.383-1.541,2.871-2.945,4.444-4.288c0.173-0.148,0.213-0.187,0.245-0.223
		c0.055-0.033,0.105-0.062,0.299-0.195l1.079-0.742c0.784-0.515,1.592-0.995,2.431-1.417c0.235-0.119,0.813-0.344,0.809-0.353
		l1.001-0.333l1.338-0.302c-1.292,0.284-0.071,0.047,0.271,0.049c0.447,0.002,1.494,0.35,0.219-0.029l0.812,0.228l0.455,0.266
		l-0.199-0.188l0.555,0.52c0.173,0.157,0.158,0.097,0.136,0.051c0.023,0.044,0.08,0.139,0.2,0.329l0.827,1.452
		c0.001,0.003,0.741,1.583,0.359,0.716c0.259,0.587,0.491,1.189,0.735,1.783c1.001,2.427,2.002,4.853,3.003,7.28
		c2.044,4.959,4.088,9.919,6.133,14.878c1.107,2.687,3.752,4.902,6.861,3.896c2.589-0.837,5.088-3.973,3.896-6.861
		c-2.349-5.698-4.698-11.396-7.047-17.093c-2.342-5.682-4.088-12.514-9.451-16.139c-9.421-6.367-20.99,1.793-27.299,8.828
		c-1.947,2.171-2.302,5.775,0,7.888C990.968,658.26,994.649,658.627,996.729,656.307z"/>
	<path style="fill:#6b5c52;" d="M649.037,626.69c1.001-0.622,1.639-0.997,2.734-1.167c-0.599,0.093,0.923-0.006,1.103,0.022
		c-0.687-0.107,0.939,0.463,0.239,0.135l1.088,0.685c0.093,0.112,0.708,0.651,0.73,0.672c0.792,0.768,1.517,1.6,2.243,2.429
		c3.231,3.681,7.15,7.45,12.477,6.906c2.997-0.306,5.578-2.344,5.578-5.578c0-2.778-2.562-5.886-5.578-5.578l-0.829,0.05
		l-0.416-0.227c-0.151-0.078-0.17-0.073-0.222-0.088c-0.035-0.053-0.054-0.093-0.201-0.244l-1.108-1.098
		c-1.63-1.717-3.05-3.64-4.849-5.192c-5.464-4.714-12.467-5.181-18.619-1.36c-5.967,3.706-10.05,9.763-13.811,15.542
		c-3.892,5.978-7.234,12.286-10.053,18.837c-1.189,2.765-0.821,5.981,2.002,7.632c2.35,1.375,6.434,0.781,7.631-2.001
		c2.601-6.046,5.645-11.889,9.163-17.453C641.205,635.083,644.367,629.591,649.037,626.69z"/>
</g>
</svg>
