<?xml version="1.0" encoding="UTF-8"?>
<svg id="Ebene_1" data-name="Ebene 1" xmlns="http://www.w3.org/2000/svg" xmlns:xlink="http://www.w3.org/1999/xlink" viewBox="0 0 1668.10349 1079.36113">
  <defs>
    <style>
      .cls-1 {
        fill: url(#linear-gradient);
      }

      .cls-1, .cls-2, .cls-3 {
        stroke-width: 0px;
      }

      .cls-2 {
        fill: url(#linear-gradient-2);
      }

      .cls-3 {
        fill: #edf0f5;
      }
    </style>
    <linearGradient id="linear-gradient" x1="942.06129" y1="549.35042" x2="1280.85647" y2="512.22238" gradientUnits="userSpaceOnUse">
      <stop offset="0" stop-color="#d2d2df"/>
      <stop offset=".43676" stop-color="#dcdde5"/>
      <stop offset=".94558" stop-color="#e5e6eb"/>
    </linearGradient>
    <linearGradient id="linear-gradient-2" x1="694.08758" y1="1095.65939" x2="1131.37836" y2="372.53027" gradientUnits="userSpaceOnUse">
      <stop offset="0" stop-color="#e5e6eb"/>
      <stop offset=".94565" stop-color="#d2d2df"/>
    </linearGradient>
  </defs>
  <polygon class="cls-1" points="1030.29917 0 1668.10349 0 1030.29917 1079.36113 963.87783 1079.36108 963.87783 111.45283 1030.29917 0"/>
  <polygon class="cls-2" points="1030.29921 1079.36108 387.04362 1079.36108 1030.29921 0 1030.29921 1079.36108"/>
  <polygon class="cls-3" points="577.83977 598.00965 223.50406 0 0 0 0 1079.36108 223.50406 1079.36108 223.50406 436.10549 450.82405 814.97213 577.83977 598.00965"/>
  <path class="cls-3" d="M1221.88658,755.13605l92.09215-155.84769c-62.53512-41.48845-103.786-112.49633-103.786-193.16513,0-127.95393,103.72711-231.68104,231.68104-231.68104,38.81602,0,75.37353,9.59437,107.51116,26.46638l88.31342-149.45344C1578.89803,18.71795,1511.22303,0,1439.14811,0,1213.34693,0,1030.29921,183.04772,1030.29921,408.84889c0,145.94488,76.52874,273.94506,191.58736,346.28716Z"/>
  <path class="cls-3" d="M1476.51612,324.22469l-92.09215,155.84802c62.53512,41.48845,103.786,112.49633,103.786,193.16513,0,127.95393-103.72711,231.68104-231.68104,231.68104-38.81602,0-75.37353-9.59437-107.51116-26.46638l-88.31309,149.45344c58.79998,32.73719,126.47532,51.45514,198.54991,51.45514,225.80118,0,408.84889-183.04805,408.84889-408.84889,0-145.94521-76.52874-273.94539-191.58736-346.28749Z"/>
</svg>