<?xml version="1.0" encoding="UTF-8"?>
<svg id="Ebene_1" data-name="Ebene 1" xmlns="http://www.w3.org/2000/svg" xmlns:xlink="http://www.w3.org/1999/xlink" viewBox="0 0 1668.1 1079.36">
  <defs>
    <style>
      .cls-1 {
        fill: url(#linear-gradient-2);
      }

      .cls-2 {
        fill: #fff;
      }

      .cls-3 {
        fill: url(#linear-gradient);
      }
    </style>
    <linearGradient id="linear-gradient" x1="942.06" y1="530.65" x2="1280.86" y2="567.78" gradientTransform="translate(0 1080) scale(1 -1)" gradientUnits="userSpaceOnUse">
      <stop offset="0" stop-color="#1a1a29"/>
      <stop offset=".09" stop-color="#20242d"/>
      <stop offset=".46" stop-color="#364a3e"/>
      <stop offset=".76" stop-color="#436149"/>
      <stop offset=".95" stop-color="#496a4d"/>
    </linearGradient>
    <linearGradient id="linear-gradient-2" x1="694.09" y1="-15.66" x2="1131.38" y2="707.47" gradientTransform="translate(0 1080) scale(1 -1)" gradientUnits="userSpaceOnUse">
      <stop offset="0" stop-color="#1a2e31"/>
      <stop offset=".95" stop-color="#35523a"/>
    </linearGradient>
  </defs>
  <polygon class="cls-3" points="1030.3 0 1668.1 0 1030.3 1079.36 963.88 1079.36 963.88 111.45 1030.3 0"/>
  <polygon class="cls-1" points="1030.3 1079.36 387.04 1079.36 1030.3 0 1030.3 1079.36"/>
  <polygon class="cls-2" points="577.84 598.01 223.5 0 0 0 0 1079.36 223.5 1079.36 223.5 436.11 450.82 814.97 577.84 598.01"/>
  <path class="cls-2" d="M1221.89,755.14l92.09-155.85c-62.54-41.49-103.79-112.5-103.79-193.17,0-127.95,103.73-231.68,231.68-231.68,38.82,0,75.37,9.59,107.51,26.47l88.31-149.45C1578.9,18.72,1511.22,0,1439.15,0c-225.8,0-408.85,183.05-408.85,408.85,0,145.94,76.53,273.95,191.59,346.29Z"/>
  <path class="cls-2" d="M1476.52,324.22l-92.09,155.85c62.54,41.49,103.79,112.5,103.79,193.17,0,127.95-103.73,231.68-231.68,231.68-38.82,0-75.37-9.59-107.51-26.47l-88.31,149.45c58.8,32.74,126.48,51.46,198.55,51.46,225.8,0,408.85-183.05,408.85-408.85,0-145.95-76.53-273.95-191.59-346.29h0Z"/>
</svg>